Coordinates
version=1
nRows=22
nColumns=24
inDegrees=yes

Units are S.I. units (second, meters, Newtons, ...)
Angles are in degrees.

endheader
time	pelvis_tilt	pelvis_list	pelvis_rotation	pelvis_tx	pelvis_ty	pelvis_tz	hip_flexion_r	hip_adduction_r	hip_rotation_r	knee_angle_r	ankle_angle_r	subtalar_angle_r	mtp_angle_r	hip_flexion_l	hip_adduction_l	hip_rotation_l	knee_angle_l	ankle_angle_l	subtalar_angle_l	mtp_angle_l	lumbar_extension	lumbar_bending	lumbar_rotation
      4.57000000	    -12.38574675	      6.92487379	      4.08617474	     -1.63804616	     -0.03199677	      2.02342905	     16.47750125	    -13.60199956	    -12.98214597	    -57.93725762	    -20.32063532	    -11.65993836	     17.60119661	     29.55938983	     11.48278840	     -4.71729003	    -21.69463291	     -2.96651378	     -7.49880838	     12.06101485	      8.29293656	     -9.02094096	     -3.38036898
      4.58000000	    -12.31012110	      6.84846447	      4.02373768	     -1.62504566	     -0.02941144	      2.02260273	     18.15308052	    -13.26509576	    -12.07782209	    -58.77309641	    -18.43193046	    -12.71754316	     15.94273222	     28.17102283	     11.37129638	     -4.93653869	    -20.95088343	     -2.49616878	     -7.08125672	     13.32459464	      8.18937952	     -8.87286266	     -3.60116557
      4.59000000	    -12.13577005	      6.77774448	      3.89923093	     -1.61207790	     -0.02674114	      2.02180270	     19.67717669	    -12.88466825	    -11.18201953	    -59.23267894	    -16.75676811	    -13.43942888	     15.85299119	     26.61399296	     11.25338340	     -5.15291801	    -20.09704811	     -1.93081089	     -6.62574649	     13.70580144	      7.98982557	     -8.69965879	     -3.77795859
      4.60000000	    -12.02971512	      6.59557302	      3.90293004	     -1.59924708	     -0.02422686	      2.02077979	     21.17423032	    -12.42511942	    -10.49175905	    -59.37224610	    -15.01585148	    -13.66221174	     15.98999221	     25.10931326	     11.10635564	     -5.13860012	    -19.19552720	     -1.42279335	     -6.21809802	     13.91763953	      7.84265726	     -8.42719468	     -4.09584396
      4.61000000	    -11.87602891	      6.44507888	      3.81766790	     -1.58647613	     -0.02178831	      2.01992195	     22.58087747	    -11.95301665	     -9.81649464	    -59.21678147	    -13.35347280	    -13.77332286	     16.04869409	     23.50336630	     10.95344499	     -5.20752784	    -18.17088333	     -0.96373013	     -5.83534211	     14.17257073	      7.65064470	     -8.17708408	     -4.30280771
      4.62000000	    -11.77424682	      6.15315873	      3.82581328	     -1.57376649	     -0.01952217	      2.01888968	     23.91892084	    -11.38690855	     -9.38088643	    -58.73106384	    -11.80563977	    -13.68634775	     16.20408825	     21.96029503	     10.71828860	     -5.05120076	    -17.14624951	     -0.55107170	     -5.57155573	     14.31069990	      7.51023346	     -7.78906973	     -4.57713988
      4.63000000	    -11.63678200	      5.82206829	      3.86560037	     -1.56119661	     -0.01741876	      2.01787788	     25.13481184	    -10.81631640	     -9.12211386	    -57.97650208	    -10.39367711	    -13.54147684	     16.37357019	     20.41402102	     10.45266305	     -4.81916937	    -16.15520079	     -0.20083781	     -5.39250169	     14.35836557	      7.30668419	     -7.37318072	     -4.89504603
      4.64000000	    -11.50927286	      5.45024650	      3.99220333	     -1.54868590	     -0.01559868	      2.01675329	     26.27159010	    -10.28923067	     -9.10580067	    -56.98979968	     -9.17967341	    -13.40878480	     16.53547487	     18.92456080	     10.18294753	     -4.42615460	    -15.23811794	      0.13912360	     -5.34682845	     14.26782925	      7.09941525	     -6.92703166	     -5.25722574
      4.65000000	    -11.38948798	      5.05652776	      4.21637349	     -1.53624847	     -0.01407380	      2.01554960	     27.33705643	     -9.82998902	     -9.32872842	    -55.80187283	     -8.17795560	    -13.32607223	     16.65764472	     17.49558592	      9.91997326	     -3.88485592	    -14.40532478	      0.46715242	     -5.43250812	     13.99141638	      6.88217121	     -6.47686062	     -5.68447082
      4.66000000	    -11.28869232	      4.65878406	      4.52085438	     -1.52386286	     -0.01285932	      2.01430009	     28.35607455	     -9.44251444	     -9.73812565	    -54.44234047	     -7.37576909	    -13.27374062	     16.72733128	     16.13255352	      9.66416965	     -3.25621923	    -13.64682598	      0.81589706	     -5.58388556	     13.53727899	      6.67285059	     -6.03642242	     -6.15117478
      4.67000000	    -11.19937491	      4.27188457	      4.88689738	     -1.51152443	     -0.01193234	      2.01304569	     29.32532986	     -9.12169458	    -10.27121396	    -52.93257419	     -6.70600020	    -13.17409225	     16.76284902	     14.81763910	      9.41202231	     -2.61436936	    -12.94410389	      1.21197310	     -5.70638478	     12.98455039	      6.46648058	     -5.62097678	     -6.63818467
      4.68000000	    -10.99956982	      3.92720998	      5.19028851	     -1.49920411	     -0.01112136	      2.01193416	     30.12149394	     -8.80352181	    -10.76490417	    -51.25953820	     -6.12331148	    -13.00703112	     16.77664190	     13.38663471	      9.16153776	     -2.01477244	    -12.25397858	      1.76894828	     -5.80763883	     11.52450714	      6.13962063	     -5.22842949	     -6.99018672
      4.69000000	    -11.07909300	      3.56559457	      5.64320341	     -1.48701399	     -0.01088266	      2.01078079	     31.16071330	     -8.57410993	    -11.36954929	    -49.49761489	     -5.52380974	    -12.57743791	     16.83846033	     12.33925454	      8.89143877	     -1.55567729	    -11.66278849	      2.26323474	     -5.62582897	     11.33212537	      6.09782992	     -4.87646783	     -7.51628656
      4.70000000	    -11.03733018	      3.22527579	      6.03362560	     -1.47484860	     -0.01071313	      2.00979116	     31.99376118	     -8.31467192	    -11.90544379	    -47.56217757	     -4.91112782	    -11.98084044	     16.93140177	     11.14723770	      8.59526281	     -1.12283694	    -11.02798937	      2.73837648	     -5.47696414	     11.14990913	      5.92347519	     -4.52833468	     -7.92860136
      4.71000000	    -10.99280828	      2.91718031	      6.37547376	     -1.46271839	     -0.01073594	      2.00890553	     32.76401964	     -8.08214928	    -12.44154828	    -45.48464934	     -4.33134194	    -11.19601127	     17.08846719	      9.95541532	      8.29474204	     -0.86900417	    -10.37549866	      3.20330124	     -5.25193519	     10.99218155	      5.74398754	     -4.20309823	     -8.32333529
      4.72000000	    -10.96649726	      2.62887294	      6.67338606	     -1.45059480	     -0.01098836	      2.00814795	     33.49152002	     -7.84770860	    -12.93950101	    -43.26869601	     -3.80167172	    -10.22826021	     17.36649106	      8.79799741	      7.98102238	     -0.67585620	     -9.74831127	      3.70346297	     -4.94370644	     10.88850137	      5.58572132	     -3.89413192	     -8.66021377
      4.73000000	    -11.01789208	      2.38332509	      6.92165890	     -1.43844965	     -0.01158959	      2.00749248	     34.25187621	     -7.67073190	    -13.50146846	    -40.95640572	     -3.25450663	     -9.08529163	     17.71874403	      7.74865712	      7.69502924	     -0.59896047	     -9.16893631	      4.24224152	     -4.59364347	     10.89077560	      5.51560660	     -3.62945846	     -8.90710063
      4.74000000	    -10.89549793	      2.06868406	      7.07874325	     -1.42627995	     -0.01206039	      2.00699726	     34.71824532	     -7.36382637	    -14.15560420	    -38.39530993	     -3.06797541	     -7.95562014	     18.86222999	      6.52904120	      7.28025921	     -0.59236737	     -8.60544931	      4.81172642	     -4.18703638	     10.79510616	      5.26786317	     -3.25371477	     -9.07907860
      4.75000000	    -11.09273174	      1.86094415	      7.18861392	     -1.41418876	     -0.01318232	      2.00666064	     35.53822127	     -7.18535532	    -14.75556339	    -35.88708500	     -2.66999710	     -6.41548496	     19.43509111	      5.72457049	      7.00717002	     -0.71523034	     -8.17433529	      5.36943013	     -3.78950757	     10.85550658	      5.34481483	     -3.02681199	     -9.23232353
      4.76000000	    -10.96916491	      1.46194051	      7.13871298	     -1.40194295	     -0.01393019	      2.00663853	     35.85369565	     -6.64452232	    -15.42841066	    -33.01711794	     -2.82146585	     -5.19865060	     21.56380607	      4.58099387	      6.44846966	     -0.95630354	     -7.73800026	      6.09220986	     -3.27064911	     10.74876032	      5.11553803	     -2.53884316	     -9.22867001
      4.77000000	    -11.14623851	      1.21169428	      6.99422495	     -1.38985662	     -0.01522818	      2.00675372	     36.50042548	     -6.25594604	    -16.04360894	    -30.18803709	     -2.96319326	     -3.62819166	     24.84131735	      3.82051489	      6.10208496	     -1.33989258	     -7.41697207	      6.70937225	     -2.92150179	     10.39342386	      5.16989357	     -2.22587045	     -9.06311692
      4.78000000	    -11.36657036	      0.88131691	      6.85049569	     -1.37778304	     -0.01663704	      2.00706479	     37.11469268	     -5.71900276	    -16.54860447	    -27.35318853	     -2.75186657	     -1.90767382	     25.32199535	      3.18428673	      5.66327183	     -1.80189433	     -7.21834762	      7.35440161	     -2.50140282	     10.42955444	      5.26602944	     -1.84533081	     -8.96685207
